<?xml version="1.0" encoding="UTF-8" standalone="no"?>
<!DOCTYPE svg PUBLIC "-//W3C//DTD SVG 1.1//EN" "http://www.w3.org/Graphics/SVG/1.1/DTD/svg11.dtd">
<svg width="415.0" height="342.0" version="1.1" xmlns="http://www.w3.org/2000/svg"><g><rect x="0" y="0" width="415.0" height="342.0" fill="#dfe2e5"></rect>
</g>
<g transform="translate(207.5, 0)"><rect x="0.0" y="95.0" transform="translate(-75, -25.0)" width="150" height="50.0" fill="#ffffff" opacity="1.0" stroke="#000" stroke-width="1.0"></rect>
<text x="6.0" y="89.5" width="150" height="50.0" fill="#000" font-size="14" style="fill: #000000; font-family: Monaco; font-style: normal; font-variant: normal; font-weight: normal; line-height: 100%; word-spacing: normal; letter-spacing: normal; text-decoration: none; text-transform: none; text-align: center; text-indent: 0ex;">Conclusion</text>
</g>
<g transform="translate(207.5, 0)"><rect x="-80.0" y="285.0" transform="translate(-75, -25.0)" width="150" height="50.0" fill="#ffffff" opacity="1.0" stroke="#000" stroke-width="1.0"></rect>
<text x="-98.0" y="279.5" width="150" height="50.0" fill="#000" font-size="14" style="fill: #000000; font-family: Monaco; font-style: normal; font-variant: normal; font-weight: normal; line-height: 100%; word-spacing: normal; letter-spacing: normal; text-decoration: none; text-transform: none; text-align: center; text-indent: 0ex;">Premise Statement</text>
</g>
<g transform="translate(207.5, 0)"><rect x="80.0" y="285.0" transform="translate(-75, -25.0)" width="150" height="50.0" fill="#ffffff" opacity="1.0" stroke="#000" stroke-width="1.0"></rect>
<text x="62.0" y="279.5" width="150" height="50.0" fill="#000" font-size="14" style="fill: #000000; font-family: Monaco; font-style: normal; font-variant: normal; font-weight: normal; line-height: 100%; word-spacing: normal; letter-spacing: normal; text-decoration: none; text-transform: none; text-align: center; text-indent: 0ex;">Premise Statement</text>
</g>
<g transform="translate(207.5, 0)"><line x1="-80.0" y1="170.0" x2="-35.0" y2="120.0" stroke-width="1.5" stroke="#000"></line>
<polygon fill="#000" points="-35.0, 120.0 -40.0, 130.0 -30.0, 130.0" stroke="#000" stroke-width="1.5" transform="rotate(41.98721174109962 -35.0 120.0)"></polygon>
</g>
<g transform="translate(207.5, 0)"><line x1="-80.0" y1="260.0" x2="-80.0" y2="210.0" stroke-width="1.5" stroke="#000"></line>
</g>
<g transform="translate(207.5, 0)"><line x1="80.0" y1="170.0" x2="35.0" y2="120.0" stroke-width="1.5" stroke="#000"></line>
<polygon fill="#ffffff" points="35.0, 120.0 30.0, 130.0 40.0, 130.0" stroke="#000" stroke-width="1.5" transform="rotate(-41.98721174109962 35.0 120.0)"></polygon>
</g>
<g transform="translate(207.5, 0)"><line x1="80.0" y1="260.0" x2="80.0" y2="210.0" stroke-width="1.5" stroke="#000"></line>
</g>
</svg>
