<?xml version="1.0" encoding="UTF-8" standalone="no"?>
<!DOCTYPE svg PUBLIC "-//W3C//DTD SVG 1.1//EN" "http://www.w3.org/Graphics/SVG/1.1/DTD/svg11.dtd">
<svg width="765.0" height="1026.0" version="1.1" xmlns="http://www.w3.org/2000/svg" viewBox="0 0 255.0 342.0"><g><rect x="0" y="0" width="255.0" height="342.0" fill="#ffffff"></rect>
</g>
<g transform="translate(127.5, 0)"><rect x="0.0" y="95.0" transform="translate(-75, -25.0)" width="135" height="50.0" fill="#ffffff" opacity="1.0" stroke="#000" stroke-width="1.0"></rect>
<circle cx="71.0" cy="86.0" r="7" fill="none" opacity="1.0" stroke="#000" stroke-width="1.0"></circle>
<circle cx="71.0" cy="104.0" r="7" fill="none" opacity="1.0" stroke="#000" stroke-width="1.0"></circle>
<text x="-61.0" y="89.5" text-anchor="middle" width="150" height="50.0" fill="#000" font-size="12" font-family="monospace"><tspan x="0" dy="1em">Conclusion</tspan>
</text>
</g>
<g transform="translate(127.5, 0)"><circle cx="0.0" cy="190.0" r="20" fill="#ffffff" opacity="1.0" stroke="#000" stroke-width="1.0"></circle>
<text x="0.0" y="194.5" text-anchor="middle" width="40" height="40.0" fill="#000" font-size="12" font-family="monospace">+.50</text>
</g>
<g transform="translate(127.5, 0)"><rect x="0.0" y="285.0" transform="translate(-75, -25.0)" width="135" height="50.0" fill="#ffffff" opacity="1.0" stroke="#000" stroke-width="1.0"></rect>
<circle cx="71.0" cy="276.0" r="7" fill="none" opacity="1.0" stroke="#000" stroke-width="1.0"></circle>
<circle cx="71.0" cy="294.0" r="7" fill="none" opacity="1.0" stroke="#000" stroke-width="1.0"></circle>
<text x="-81.5" y="279.5" text-anchor="middle" width="150" height="50.0" fill="#000" font-size="12" font-family="monospace"><tspan x="0" dy="1em">PremiseStatement</tspan>
</text>
</g>
<g transform="translate(127.5, 0)"><line x1="0.0" y1="170.0" x2="0.0" y2="120.0" stroke-width="1.5" stroke="#000"></line>
<polygon fill="#000" points="0.0, 120.0 -5.0, 130.0 5.0, 130.0" stroke="#000" stroke-width="1.5" transform="rotate(0.0 0.0 120.0)"></polygon>
</g>
<g transform="translate(127.5, 0)"><line x1="0.0" y1="260.0" x2="0.0" y2="210.0" stroke-width="1.5" stroke="#000"></line>
</g>
</svg>
